<svg width="240" height="80" viewBox="0 0 240 80" fill="none" xmlns="http://www.w3.org/2000/svg">
<path d="M92.4288 15.0491L83.3566 38.0384L79.1999 32.367C79.1999 32.367 73.6432 35.3086 65.8663 39.2133C65.1689 39.5626 64.4557 39.9225 63.7255 40.2866C58.5063 42.8894 52.5009 45.8172 46.5897 48.5428C45.5791 49.0096 44.5685 49.4722 43.5674 49.9252C36.9778 52.9038 30.7004 55.5204 25.985 57.033C25.0791 57.324 24.2304 57.5728 23.4452 57.7739C23.2474 57.8268 23.0558 57.8797 22.8675 57.921C22.8675 57.921 21.2642 58.5688 18.8949 59.2717C17.1244 59.8018 15.3245 60.2281 13.5043 60.5482C8.41635 61.4214 2.7104 61.3283 0.417228 57.3918C0.417228 57.3918 -3.36275 50.4883 11.8323 37.9971C11.9127 37.9304 11.9921 37.8659 12.0725 37.8024C12.0503 37.8267 11.9741 37.9082 11.8609 38.031C10.173 39.8537 -0.522475 51.6707 3.2956 56.4042C3.2956 56.4042 4.12842 59.2875 14.9361 55.3553C14.9361 55.3553 21.5563 52.4793 31.1914 47.4632C32.202 46.9339 33.2486 46.3877 34.3206 45.813C39.9705 42.8005 46.4246 39.1604 53.0734 35.0164C53.8946 34.5048 54.7175 33.9854 55.5422 33.4583C61.1413 29.8849 66.8261 25.9706 72.241 21.7832L68.2346 15.4323L92.4288 15.0491Z" fill="#FBBC05"/>
<path d="M64.4111 13.2665L64.3053 13.3491L55.013 20.4589C54.7048 20.6936 54.3279 20.8202 53.9405 20.8191C53.5531 20.8179 53.1769 20.6891 52.8701 20.4526C51.6485 19.5108 50.3733 18.6407 49.051 17.8466C47.5801 16.9562 46.0194 16.2236 44.3948 15.6608C41.4833 14.6803 38.4021 14.306 35.3406 14.561C33.8041 14.6881 32.457 14.9541 31.2993 15.3591C31.0125 15.4586 30.7395 15.5655 30.477 15.683C29.1514 16.2723 28.0752 16.955 27.2484 17.7312C26.4649 18.4436 25.8345 19.3079 25.3954 20.2716C24.987 21.1981 24.8169 22.0657 24.8854 22.8744C25.0046 24.3521 25.4953 25.5933 26.3574 26.5982C27.2195 27.603 28.4417 28.4869 30.0241 29.2497C30.4262 29.4437 30.8513 29.6304 31.2993 29.8096C32.7845 30.392 34.3103 30.865 35.8644 31.2248C38.1721 31.7809 40.7951 32.3101 43.7334 32.8125C44.453 32.9459 45.1627 33.0846 45.8625 33.2285C47.433 33.5524 47.7769 35.6451 46.3917 36.4633C41.0413 39.6387 35.9343 42.449 31.4231 44.819C31.3807 44.8412 31.3384 44.8613 31.295 44.8793C30.9575 45.0248 30.5824 45.0589 30.2241 44.9767C28.7221 44.6352 27.2882 44.2629 25.9224 43.86C22.6511 42.9003 19.8387 41.6421 17.4852 40.0854C15.1951 38.5958 13.2806 36.5964 11.8914 34.2436C10.5122 31.9023 9.6875 29.0683 9.4173 25.7418C9.12171 22.1218 9.53759 18.7975 10.665 15.7688C11.7491 12.8059 13.4913 10.1277 15.7603 7.93597C18.032 5.74349 20.765 3.97934 23.9594 2.64353C26.3154 1.65794 28.7789 0.952045 31.2993 0.540314C32.3081 0.372367 33.3385 0.245702 34.3903 0.160317C38.298 -0.157229 41.8741 -0.00304279 45.1186 0.622876C46.4823 0.887498 47.792 1.19834 49.0478 1.5554C50.7067 2.02656 52.3313 2.6108 53.9103 3.30403C56.5277 4.46483 58.8477 5.83452 60.8703 7.41308C62.1601 8.41434 63.3964 9.48277 64.5741 10.6139C64.7539 10.7904 64.8937 11.0035 64.984 11.2388C65.0743 11.474 65.1131 11.7259 65.0976 11.9774C65.0822 12.2289 65.0129 12.4742 64.8944 12.6966C64.776 12.919 64.6112 13.1134 64.4111 13.2665Z" fill="#1E3168"/>
<path d="M68.6319 63.0801C67.4503 66.1239 65.6235 68.8756 63.2773 71.1458C60.904 73.4568 58.05 75.3226 54.7152 76.7431C52.829 77.5421 50.8718 78.1619 48.8696 78.5944C47.1414 78.9717 45.3895 79.2306 43.6261 79.3692C39.9869 79.6829 36.3223 79.517 32.7264 78.8759C32.3031 78.8008 31.8893 78.7182 31.4766 78.6346C28.5961 78.0534 25.7835 77.1754 23.0838 76.0148C20.1589 74.7447 17.568 73.243 15.3112 71.5099C13.261 69.937 11.6176 68.2674 10.3809 66.5012C10.2801 66.3585 10.2389 66.1822 10.2659 66.0097C10.293 65.8372 10.3863 65.682 10.5259 65.5771L14.2985 62.7361C14.38 62.674 14.4749 62.632 14.5757 62.6133C17.6234 62.0235 20.6137 61.1681 23.5124 60.0571C23.5363 60.0477 23.5607 60.0396 23.5854 60.0327C24.0856 59.9078 24.613 59.7667 25.1675 59.6093C25.2709 59.5793 25.3801 59.5742 25.4859 59.5946C25.5917 59.6151 25.6911 59.6604 25.776 59.7268C26.1283 60.0042 26.4797 60.273 26.8342 60.5313C28.2262 61.561 29.7205 62.4446 31.2935 63.168C31.3644 63.2029 31.4375 63.2347 31.5105 63.2675C33.1837 64.0056 34.9477 64.5175 36.7561 64.7896C38.6348 65.081 40.6807 65.1364 42.8938 64.9558C44.3241 64.8374 45.7385 64.5732 47.115 64.1672C47.7736 63.9767 48.4173 63.7383 49.041 63.4538C49.6974 63.1591 50.3273 62.8085 50.9236 62.4059C51.9987 61.6972 52.9104 60.7672 53.5977 59.6781C54.2524 58.6196 54.5201 57.3519 54.4009 55.875C54.3133 54.8288 53.9628 53.8216 53.3818 52.9472C52.7871 52.0299 51.8256 51.1598 50.4971 50.337C50.3934 50.2733 50.3087 50.1828 50.2523 50.0749C50.1958 49.967 50.1696 49.8459 50.1765 49.7243C50.1833 49.6027 50.2229 49.4853 50.2911 49.3844C50.3593 49.2836 50.4535 49.2031 50.5638 49.1515C55.5935 46.79 60.5735 44.3512 64.9768 42.1475C65.1081 42.0817 65.2576 42.0613 65.4017 42.0894C65.5459 42.1176 65.6767 42.1927 65.7736 42.3031C66.3937 43.0154 66.956 43.776 67.4552 44.5778C68.8661 46.8359 69.7025 49.5879 69.9642 52.834L69.9917 53.1674C70.2824 56.7112 69.8291 60.0154 68.6319 63.0801Z" fill="#1E3168"/>
<path d="M31.4278 44.8181C31.3855 44.8403 31.3432 44.8605 31.2998 44.8785V29.8109C32.785 30.3933 34.3108 30.8663 35.865 31.2261C38.1726 31.7821 40.7956 32.3114 43.7339 32.8138C44.4535 32.9472 45.1632 33.0858 45.8631 33.2298C47.4335 33.5537 47.7774 35.6463 46.3922 36.4645C41.046 39.6358 35.9391 42.4482 31.4278 44.8181Z" fill="#1E3168"/>
<path d="M96.7214 49.5254V69.8607H91.3936V59.693C91.3936 58.9067 91.2444 58.1747 90.9462 57.4968C90.6479 56.819 90.2277 56.2225 89.6854 55.7073C89.1702 55.1921 88.5602 54.799 87.8552 54.5279C87.1774 54.2296 86.4589 54.0805 85.6997 54.0805C84.9134 54.0805 84.1813 54.2296 83.5034 54.5279C82.8256 54.8261 82.2155 55.2328 81.6733 55.748C81.1581 56.236 80.7514 56.8325 80.4531 57.5375C80.1549 58.2153 80.0058 58.9474 80.0058 59.7337C80.0058 60.4929 80.1549 61.2114 80.4531 61.8893C80.7514 62.5671 81.1581 63.1636 81.6733 63.6788C82.2155 64.1939 82.8256 64.6006 83.5034 64.8989C84.1813 65.1971 84.9134 65.3463 85.6997 65.3463C86.5402 65.3463 87.2587 65.1971 87.8552 64.8989H87.8959V64.9802L89.9294 68.5999L89.8888 68.6406C88.5602 69.6709 86.9198 70.1861 84.9676 70.1861C83.5306 70.1861 82.1749 69.9149 80.9005 69.3727C79.6262 68.8304 78.5145 68.0848 77.5655 67.1358C76.6165 66.1868 75.8574 65.0751 75.288 63.8008C74.7457 62.5264 74.4745 61.1707 74.4745 59.7337C74.4745 58.2696 74.7457 56.9003 75.288 55.626C75.8574 54.3516 76.6165 53.2399 77.5655 52.291C78.5145 51.342 79.6262 50.5963 80.9005 50.0541C82.1749 49.4847 83.5306 49.2 84.9676 49.2C86.3775 49.2 87.6112 49.4711 88.6686 50.0134C89.7261 50.5286 90.6344 51.2878 91.3936 52.291V49.5254H96.7214ZM99.6262 41.3912H104.995V69.8607H99.5855L99.6262 41.3912ZM117.617 49.2C119.054 49.2 120.41 49.4847 121.684 50.0541C122.959 50.5963 124.07 51.342 125.019 52.291C125.968 53.2399 126.714 54.3516 127.256 55.626C127.826 56.9003 128.11 58.2696 128.11 59.7337C128.11 60.52 128.029 61.2792 127.866 62.0113L127.826 62.0926H117.495L114.892 57.9442H122.62C122.24 56.8054 121.603 55.87 120.708 55.1379C119.841 54.4058 118.81 54.0398 117.617 54.0398C116.885 54.0398 116.194 54.1889 115.543 54.4872C114.892 54.7854 114.323 55.1921 113.835 55.7073C113.374 56.1954 113.008 56.7919 112.737 57.4968C112.466 58.1747 112.33 58.9203 112.33 59.7337C112.33 60.3573 112.452 61.0081 112.696 61.6859C112.94 62.3366 113.293 62.9331 113.754 63.4754C114.215 64.0177 114.77 64.4786 115.421 64.8582C116.072 65.2107 116.804 65.3869 117.617 65.3869C118.349 65.3869 119.014 65.292 119.61 65.1022C120.234 64.8853 120.817 64.4244 121.359 63.7194L121.4 63.6788L121.481 63.7194L126.199 65.7936L126.117 65.875C125.141 67.2307 123.894 68.2881 122.376 69.0473C120.885 69.8065 119.298 70.1861 117.617 70.1861C116.153 70.1861 114.77 69.9149 113.469 69.3727C112.195 68.8304 111.083 68.0848 110.134 67.1358C109.185 66.1868 108.426 65.0751 107.856 63.8008C107.314 62.5264 107.043 61.1707 107.043 59.7337C107.043 58.2696 107.314 56.9003 107.856 55.626C108.426 54.3516 109.185 53.2399 110.134 52.291C111.083 51.342 112.195 50.5963 113.469 50.0541C114.77 49.4847 116.153 49.2 117.617 49.2ZM138.703 57.7815C139.598 58.0798 140.412 58.3916 141.144 58.7169C141.903 59.0152 142.554 59.3812 143.096 59.815C143.665 60.2489 144.099 60.7776 144.397 61.4012C144.723 61.9977 144.885 62.7162 144.885 63.5568V63.5974C144.885 65.6581 144.194 67.2713 142.811 68.4372C141.456 69.6031 139.544 70.1861 137.077 70.1861C135.531 70.1861 134.013 69.9285 132.522 69.4133C131.03 68.8711 129.634 68.1119 128.332 67.1358L128.292 67.0951L128.332 67.0544L131.098 62.7027L131.139 62.7433C131.952 63.611 132.874 64.2753 133.904 64.7362C134.935 65.17 136.033 65.3869 137.199 65.3869C138.798 65.3869 139.598 64.8718 139.598 63.8415C139.598 63.3534 139.341 62.9874 138.825 62.7433C138.31 62.4993 137.7 62.2688 136.995 62.0519C136.86 61.9977 136.724 61.9706 136.589 61.9706C136.48 61.9435 136.358 61.9028 136.223 61.8486C135.409 61.6317 134.596 61.4012 133.782 61.1572C132.969 60.886 132.237 60.5336 131.586 60.0997C130.935 59.6388 130.393 59.0694 129.959 58.3916C129.553 57.6866 129.349 56.7919 129.349 55.7073V55.626C129.349 54.677 129.525 53.8093 129.878 53.023C130.23 52.2367 130.732 51.5589 131.383 50.9895C132.033 50.4201 132.82 49.9863 133.742 49.688C134.664 49.3627 135.68 49.2 136.792 49.2C138.093 49.2 139.408 49.4033 140.737 49.81C142.066 50.1896 143.299 50.759 144.438 51.5182V51.5996L141.957 56.114L141.916 56.0733C141.293 55.4497 140.52 54.9617 139.598 54.6092C138.676 54.2296 137.7 54.0398 136.67 54.0398C136.48 54.0398 136.263 54.0534 136.019 54.0805C135.775 54.1076 135.545 54.1754 135.328 54.2838C135.138 54.3923 134.975 54.5414 134.84 54.7312C134.704 54.8939 134.636 55.1379 134.636 55.4633C134.636 55.7073 134.745 55.9378 134.962 56.1547C135.179 56.3445 135.45 56.5343 135.775 56.7241C136.128 56.8868 136.507 57.0494 136.914 57.2121C137.348 57.3748 137.768 57.5239 138.175 57.6595C138.256 57.6595 138.337 57.6731 138.419 57.7002C138.527 57.7273 138.622 57.7544 138.703 57.7815ZM154.844 41.3912V69.8607H148.987V46.353H140.609V41.3912H154.844ZM155.698 41.3912H163.222V46.353H158.179L155.698 41.3912ZM175.954 50.3388L175.466 51.1522L173.392 54.8532L173.351 54.8125C172.456 54.2974 171.494 54.0398 170.464 54.0398C169.759 54.0398 169.094 54.1618 168.471 54.4058C167.847 54.6228 167.291 54.9481 166.803 55.3819C166.315 55.7886 165.895 56.2767 165.542 56.8461C165.217 57.4155 165 58.0255 164.892 58.6763V69.8607H159.36V49.5254H164.892V52.169C166.329 50.1896 168.43 49.2 171.196 49.2C172.822 49.2 174.395 49.5796 175.913 50.3388H175.954ZM196.373 49.5254V69.8607H191.045V59.693C191.045 58.9067 190.896 58.1747 190.597 57.4968C190.299 56.819 189.879 56.2225 189.337 55.7073C188.821 55.1921 188.211 54.799 187.506 54.5279C186.829 54.2296 186.11 54.0805 185.351 54.0805C184.565 54.0805 183.833 54.2296 183.155 54.5279C182.477 54.8261 181.867 55.2328 181.324 55.748C180.809 56.236 180.403 56.8325 180.104 57.5375C179.806 58.2153 179.657 58.9474 179.657 59.7337C179.657 60.4929 179.806 61.2114 180.104 61.8893C180.403 62.5671 180.809 63.1636 181.324 63.6788C181.867 64.1939 182.477 64.6006 183.155 64.8989C183.833 65.1971 184.565 65.3463 185.351 65.3463C186.191 65.3463 186.91 65.1971 187.506 64.8989H187.547V64.9802L189.581 68.5999L189.54 68.6406C188.211 69.6709 186.571 70.1861 184.619 70.1861C183.182 70.1861 181.826 69.9149 180.552 69.3727C179.277 68.8304 178.166 68.0848 177.217 67.1358C176.268 66.1868 175.509 65.0751 174.939 63.8008C174.397 62.5264 174.126 61.1707 174.126 59.7337C174.126 58.2696 174.397 56.9003 174.939 55.626C175.509 54.3516 176.268 53.2399 177.217 52.291C178.166 51.342 179.277 50.5963 180.552 50.0541C181.826 49.4847 183.182 49.2 184.619 49.2C186.029 49.2 187.262 49.4711 188.32 50.0134C189.377 50.5286 190.286 51.2878 191.045 52.291V49.5254H196.373ZM213.367 62.0926L217.759 64.9802L217.718 65.0209C216.769 66.6477 215.482 67.9221 213.855 68.8439C212.255 69.7658 210.52 70.2268 208.649 70.2268C207.185 70.2268 205.815 69.9556 204.541 69.4133C203.267 68.8439 202.155 68.0848 201.206 67.1358C200.257 66.1868 199.498 65.0751 198.929 63.8008C198.386 62.5264 198.115 61.1707 198.115 59.7337C198.115 58.2967 198.386 56.941 198.929 55.6666C199.498 54.3923 200.257 53.2806 201.206 52.3316C202.155 51.3827 203.267 50.637 204.541 50.0947C205.815 49.5254 207.185 49.2407 208.649 49.2407C210.52 49.2407 212.255 49.7016 213.855 50.6235C215.482 51.5453 216.769 52.8197 217.718 54.4465L217.759 54.4872L213.326 57.3748L213.285 57.3341C212.852 56.3309 212.214 55.5175 211.374 54.8939C210.56 54.2703 209.652 53.9585 208.649 53.9585C207.917 53.9585 207.225 54.1211 206.575 54.4465C205.951 54.7448 205.409 55.165 204.948 55.7073C204.487 56.2225 204.121 56.8325 203.85 57.5375C203.579 58.2153 203.443 58.9474 203.443 59.7337C203.443 60.52 203.579 61.2521 203.85 61.9299C204.121 62.6078 204.487 63.2043 204.948 63.7194C205.409 64.2075 205.951 64.6006 206.575 64.8989C207.225 65.17 207.917 65.3056 208.649 65.3056C209.652 65.3056 210.56 65.0345 211.374 64.4922C212.214 63.9228 212.852 63.1365 213.285 62.1333L213.326 62.0519L213.367 62.0926ZM228.35 49.2C229.787 49.2 231.142 49.4847 232.417 50.0541C233.691 50.5963 234.803 51.342 235.752 52.291C236.701 53.2399 237.446 54.3516 237.989 55.626C238.558 56.9003 238.843 58.2696 238.843 59.7337C238.843 60.52 238.761 61.2792 238.599 62.0113L238.558 62.0926H228.228L225.625 57.9442H233.352C232.973 56.8054 232.335 55.87 231.441 55.1379C230.573 54.4058 229.543 54.0398 228.35 54.0398C227.618 54.0398 226.926 54.1889 226.275 54.4872C225.625 54.7854 225.055 55.1921 224.567 55.7073C224.106 56.1954 223.74 56.7919 223.469 57.4968C223.198 58.1747 223.063 58.9203 223.063 59.7337C223.063 60.3573 223.185 61.0081 223.429 61.6859C223.673 62.3366 224.025 62.9331 224.486 63.4754C224.947 64.0177 225.503 64.4786 226.153 64.8582C226.804 65.2107 227.536 65.3869 228.35 65.3869C229.082 65.3869 229.746 65.292 230.343 65.1022C230.966 64.8853 231.549 64.4244 232.091 63.7194L232.132 63.6788L232.213 63.7194L236.931 65.7936L236.85 65.875C235.874 67.2307 234.627 68.2881 233.108 69.0473C231.617 69.8065 230.031 70.1861 228.35 70.1861C226.886 70.1861 225.503 69.9149 224.201 69.3727C222.927 68.8304 221.815 68.0848 220.866 67.1358C219.917 66.1868 219.158 65.0751 218.589 63.8008C218.046 62.5264 217.775 61.1707 217.775 59.7337C217.775 58.2696 218.046 56.9003 218.589 55.626C219.158 54.3516 219.917 53.2399 220.866 52.291C221.815 51.342 222.927 50.5963 224.201 50.0541C225.503 49.4847 226.886 49.2 228.35 49.2Z" fill="#1E3168"/>
</svg>
